<svg width="30" height="30" viewBox="0 0 30 30" fill="none" xmlns="http://www.w3.org/2000/svg">
<path d="M14 28C14 29.1046 13.1046 30 12 30H7C5.89543 30 5 29.1046 5 28V27C5 25.8954 4.10457 25 3 25H2C0.89543 25 0 24.1046 0 23V7C0 5.89543 0.895431 5 2 5H3C4.10457 5 5 4.10457 5 3V2C5 0.89543 5.89543 0 7 0H12C13.1046 0 14 0.895431 14 2V28Z" fill="#7098FF"/>
<path d="M16 28C16 29.1046 16.8954 30 18 30H23C24.1046 30 25 29.1046 25 28V27C25 25.8954 25.8954 25 27 25H28C29.1046 25 30 24.1046 30 23V7C30 5.89543 29.1046 5 28 5H27C25.8954 5 25 4.10457 25 3V2C25 0.89543 24.1046 0 23 0H18C16.8954 0 16 0.895431 16 2V28Z" fill="#7098FF"/>
<rect x="9" y="13" width="5" height="5" rx="2" fill="#D3EE17"/>
<rect x="16" y="13" width="5" height="5" rx="2" fill="#D3EE17"/>
</svg>
