<svg width="48" height="47" viewBox="0 0 48 47" fill="none" xmlns="http://www.w3.org/2000/svg">
<path d="M15 23.5C15 25.1569 16.3431 26.5 18 26.5C19.6569 26.5 21 25.1569 21 23.5C21 21.8431 19.6569 20.5 18 20.5C16.3431 20.5 15 21.8431 15 23.5Z" stroke="#414141" stroke-width="2" stroke-linecap="round" stroke-linejoin="round"/>
<path d="M27 17.5C27 19.1569 28.3431 20.5 30 20.5C31.6569 20.5 33 19.1569 33 17.5C33 15.8431 31.6569 14.5 30 14.5C28.3431 14.5 27 15.8431 27 17.5Z" stroke="#414141" stroke-width="2" stroke-linecap="round" stroke-linejoin="round"/>
<path d="M27 29.5C27 31.1569 28.3431 32.5 30 32.5C31.6569 32.5 33 31.1569 33 29.5C33 27.8431 31.6569 26.5 30 26.5C28.3431 26.5 27 27.8431 27 29.5Z" stroke="#414141" stroke-width="2" stroke-linecap="round" stroke-linejoin="round"/>
<path d="M27 29.5H25C24.4 29.5 24 29.1 24 28.5V18.5C24 17.9 24.4 17.5 25 17.5H27" stroke="#414141" stroke-width="2" stroke-linecap="round" stroke-linejoin="round"/>
<path d="M24 23.5H21" stroke="#414141" stroke-width="2" stroke-linecap="round" stroke-linejoin="round"/>
</svg>
