<svg width="24" height="25" viewBox="0 0 24 25" fill="none" xmlns="http://www.w3.org/2000/svg">
<path fill-rule="evenodd" clip-rule="evenodd" d="M12 0.5C5.37258 0.5 0 5.87258 0 12.5C0 19.1274 5.37258 24.5 12 24.5C18.6274 24.5 24 19.1274 24 12.5C24 5.87258 18.6274 0.5 12 0.5ZM17.1246 9.44478C17.4623 9.00777 17.3818 8.37974 16.9448 8.04205C16.5078 7.70436 15.8797 7.78487 15.5421 8.22189L10.6082 14.6069L8.40996 12.1644C8.0405 11.7539 7.40821 11.7206 6.9977 12.09C6.58719 12.4595 6.55391 13.0918 6.92337 13.5023L9.92337 16.8356C10.1218 17.0561 10.4078 17.1771 10.7041 17.166C11.0005 17.1549 11.2766 17.0128 11.458 16.7781L17.1246 9.44478Z" fill="#7098FF"/>
</svg>
