<svg width="24" height="25" viewBox="0 0 24 25" fill="none" xmlns="http://www.w3.org/2000/svg">
<path d="M12.1861 0.6875C14.3223 0.6875 16.2981 1.13759 18.1134 2.03777C19.9287 2.93794 21.3638 4.16201 22.4187 5.70993C23.4736 7.2578 24.0011 8.94624 24.0011 10.7752C24.0011 12.6041 23.4736 14.2949 22.4187 15.8476C21.3638 17.4003 19.9309 18.6267 18.12 19.5269C16.309 20.427 14.3311 20.8772 12.1861 20.8772C11.5092 20.8772 10.8103 20.8247 10.0895 20.72C6.95987 23.0728 5.29403 24.2635 5.09183 24.2921C4.99512 24.3302 4.90279 24.3254 4.8149 24.2778C4.77972 24.2493 4.75336 24.2111 4.73577 24.1635C4.71819 24.1159 4.70942 24.073 4.70942 24.0349V23.9778C4.76218 23.6062 5.16214 22.0584 5.90938 19.334C4.21273 18.4196 2.86552 17.2074 1.86775 15.6976C0.869979 14.1878 0.371094 12.547 0.371094 10.7752C0.371094 8.94624 0.898549 7.2578 1.95346 5.70993C3.00837 4.16201 4.44349 2.93794 6.25881 2.03777C8.07413 1.13759 10.0499 0.6875 12.1861 0.6875Z" fill="#4C232D"/>
</svg>
