<svg width="181" height="36" viewBox="0 0 181 36" fill="none" xmlns="http://www.w3.org/2000/svg">
<path d="M156.639 35.3732C155.326 35.3732 154.09 34.7956 153.246 33.7887C152.404 32.7817 152.052 31.4632 152.283 30.17L153.275 24.6148C152.522 25.3075 151.682 25.8763 150.781 26.2968C149.205 27.0334 147.444 27.4223 145.69 27.4223C144.235 27.4223 142.858 27.1589 141.598 26.6401C140.003 25.9834 138.768 24.7948 138.116 23.3375C137.112 24.6236 135.86 25.6349 134.443 26.296C132.866 27.0325 131.106 27.4214 129.352 27.4214C127.897 27.4214 126.52 27.158 125.26 26.6392C124.418 26.2925 123.659 25.7859 123.039 25.1644L121.867 31.7248C121.49 33.8378 119.659 35.3715 117.511 35.3715C116.198 35.3715 114.962 34.7938 114.118 33.7869C113.276 32.78 112.924 31.4614 113.155 30.1683L116.339 12.3342C116.717 10.2212 118.548 8.6875 120.695 8.6875C122.009 8.6875 123.245 9.26514 124.088 10.2721C124.568 10.8444 124.887 11.5178 125.032 12.2289C125.04 12.2201 125.048 12.2122 125.056 12.2034C126.54 10.6399 128.803 9.41263 131.108 8.91926C131.828 8.76563 132.55 8.6875 133.253 8.6875C135.496 8.6875 137.392 9.45652 138.734 10.9103C139.398 11.6293 139.885 12.5686 140.177 13.6782C140.497 13.2349 140.837 12.8126 141.189 12.4237C141.257 12.3491 141.325 12.2754 141.394 12.2034C142.879 10.6399 145.141 9.41263 147.446 8.91926C148.166 8.76563 148.888 8.6875 149.592 8.6875C151.835 8.6875 153.73 9.45652 155.072 10.9103C155.28 11.1359 155.472 11.3835 155.645 11.6512C156.256 9.89897 157.914 8.6875 159.822 8.6875C161.135 8.6875 162.371 9.26514 163.215 10.2721C163.694 10.8444 164.013 11.5178 164.158 12.2289C164.166 12.2201 164.174 12.2122 164.182 12.2034C165.666 10.6399 167.929 9.41263 170.234 8.91926C170.954 8.76563 171.676 8.6875 172.38 8.6875C174.623 8.6875 176.518 9.45652 177.86 10.9103C178.702 11.8224 179.269 13.1111 179.501 14.6395C179.696 15.9203 179.652 17.368 179.377 18.7164L179.275 19.1685C179.239 19.3151 179.205 19.4441 179.171 19.5626C178.314 22.5395 176.219 25.0564 173.567 26.2951C171.991 27.0316 170.231 27.4205 168.477 27.4205C167.021 27.4205 165.645 27.1572 164.384 26.6383C163.542 26.2916 162.784 25.785 162.164 25.1635L160.993 31.7239C160.615 33.8369 158.784 35.3706 156.637 35.3706L156.639 35.3732ZM156.381 31.4412C156.246 31.4412 156.131 31.5422 156.113 31.6756C156.099 31.773 156.14 31.8433 156.165 31.8766C156.191 31.91 156.248 31.9688 156.345 31.982C156.433 31.9943 156.52 32.0004 156.603 32.0004C156.83 32.0004 157.04 31.9548 157.229 31.8635C157.971 31.507 158.126 30.7108 158.466 28.4582C158.499 28.2449 158.533 28.0192 158.57 27.7805C158.679 27.0685 158.797 26.3434 158.921 25.6253C158.946 25.4778 158.846 25.3364 158.699 25.311C158.683 25.3084 158.667 25.3066 158.651 25.3066C158.519 25.3066 158.407 25.4014 158.384 25.5331C158.261 26.2565 158.142 26.9842 158.032 27.6971C157.999 27.9148 157.967 28.1211 157.939 28.3168L157.93 28.3765C157.594 30.602 157.467 31.1454 156.995 31.3719C156.88 31.4272 156.749 31.4553 156.604 31.4553C156.546 31.4553 156.485 31.4509 156.422 31.4421C156.409 31.4403 156.397 31.4395 156.384 31.4395L156.381 31.4412ZM117.499 31.4412C117.364 31.4412 117.248 31.5422 117.23 31.6756C117.216 31.773 117.257 31.8433 117.282 31.8775C117.308 31.9109 117.365 31.9697 117.462 31.9829C117.55 31.9952 117.638 32.0013 117.72 32.0013C117.947 32.0013 118.157 31.9556 118.345 31.8643C119.087 31.5079 119.243 30.7117 119.582 28.4591L119.588 28.4231C119.618 28.2203 119.651 28.007 119.685 27.7813C119.796 27.0571 119.915 26.332 120.036 25.6261C120.062 25.4787 119.962 25.3373 119.814 25.3119C119.799 25.3092 119.783 25.3084 119.768 25.3084C119.635 25.3084 119.523 25.4032 119.5 25.534C119.377 26.2486 119.258 26.9772 119.148 27.6979C119.111 27.9376 119.077 28.1641 119.044 28.3774C118.708 30.6028 118.582 31.1462 118.109 31.3736C117.995 31.4289 117.863 31.457 117.719 31.457C117.661 31.457 117.599 31.4526 117.536 31.4438C117.524 31.4421 117.512 31.4412 117.499 31.4412ZM168.133 20.6477C168.122 20.667 168.117 20.6872 168.117 20.7092C168.117 20.7776 168.172 20.8329 168.24 20.8329C168.309 20.8329 168.364 20.7776 168.364 20.7092C168.364 20.6407 168.309 20.5942 168.257 20.5871L168.174 20.5757L168.133 20.6477ZM166.608 14.8634C166.573 14.8634 166.538 14.8634 166.504 14.8651C165.525 14.9055 164.686 15.6578 164.508 16.6542L164.394 17.2907C164.213 18.3073 164.761 19.3133 165.696 19.6812C165.987 19.7953 166.293 19.8532 166.609 19.8532C166.651 19.8532 166.694 19.8523 166.737 19.8497C166.956 19.8392 167.174 19.7979 167.384 19.7277L167.707 19.6206L167.99 19.4301C168.665 18.9762 169.081 18.2283 169.103 17.4294C169.123 16.749 168.872 16.1056 168.398 15.6183C167.924 15.1311 167.289 14.8625 166.609 14.8625L166.608 14.8634ZM144.198 14.8634C144.163 14.8634 144.128 14.8634 144.094 14.8651C143.115 14.9055 142.275 15.6578 142.097 16.6542L141.984 17.2907C141.802 18.3073 142.35 19.3133 143.286 19.6812C143.576 19.7953 143.883 19.8532 144.198 19.8532C144.24 19.8532 144.283 19.8523 144.326 19.8497C145.618 19.7856 146.657 18.7225 146.693 17.4294C146.712 16.7482 146.461 16.1056 145.988 15.6183C145.514 15.1311 144.878 14.8625 144.199 14.8625L144.198 14.8634ZM127.481 14.8634C127.446 14.8634 127.411 14.8634 127.377 14.8651C126.398 14.9055 125.559 15.6578 125.381 16.6542L125.267 17.2907C125.245 17.4154 125.233 17.5435 125.233 17.6717C125.228 18.561 125.765 19.3704 126.569 19.6864C126.799 19.7768 127.049 19.8313 127.311 19.8471L127.337 19.8488C127.365 19.8506 127.39 19.8506 127.416 19.8515C127.443 19.8515 127.467 19.8523 127.489 19.8523L127.61 19.8497C127.625 19.8497 127.639 19.848 127.654 19.8462L127.71 19.8418C127.743 19.8392 127.78 19.8348 127.817 19.8295C128.281 19.7707 128.733 19.6013 129.128 19.3388C129.197 19.2931 129.262 19.2413 129.323 19.1825C129.681 18.841 129.913 18.2801 129.961 17.6436L129.963 17.6234C129.971 17.5514 129.975 17.4873 129.977 17.4294C129.99 16.9457 129.866 16.4734 129.615 16.0625L129.295 15.5376L128.769 15.2207C128.382 14.9871 127.936 14.8634 127.481 14.8634ZM175.61 12.8925C175.567 12.8925 175.502 12.9031 175.441 12.9522C175.324 13.0453 175.305 13.2173 175.398 13.3341L175.418 13.3596C175.743 13.766 176.503 14.7185 176.55 16.0801C176.613 17.9421 176.374 18.4381 176.08 18.8551C175.993 18.978 176.023 19.1474 176.146 19.2343C176.204 19.2756 176.262 19.2844 176.302 19.2844C176.392 19.2844 176.473 19.2422 176.525 19.1694C176.811 18.7638 177.168 18.2581 177.094 16.0625C177.041 14.5201 176.202 13.4693 175.844 13.0207L175.824 12.9952C175.773 12.9312 175.694 12.8934 175.611 12.8934L175.61 12.8925ZM152.394 12.8925C152.351 12.8925 152.286 12.9031 152.224 12.9522C152.108 13.0453 152.088 13.2173 152.181 13.3341L152.202 13.3596C152.526 13.766 153.287 14.7185 153.333 16.0801C153.396 17.9421 153.158 18.4381 152.864 18.8551C152.777 18.978 152.806 19.1474 152.929 19.2343C152.987 19.2756 153.046 19.2844 153.086 19.2844C153.176 19.2844 153.257 19.2422 153.309 19.1694C153.595 18.7638 153.952 18.2581 153.877 16.0625C153.825 14.5201 152.986 13.4693 152.627 13.0207L152.607 12.9952C152.556 12.9312 152.478 12.8934 152.395 12.8934L152.394 12.8925ZM136.065 12.8925C136.022 12.8925 135.957 12.9031 135.896 12.9522C135.82 13.0137 135.8 13.0927 135.795 13.1348C135.791 13.177 135.791 13.2586 135.853 13.335L135.873 13.3604C136.198 13.7669 136.958 14.7194 137.005 16.081C137.068 17.943 136.829 18.439 136.535 18.856C136.448 18.9789 136.478 19.1483 136.601 19.2352C136.659 19.2765 136.718 19.2852 136.757 19.2852C136.848 19.2852 136.928 19.2431 136.98 19.1702C137.266 18.7647 137.624 18.259 137.549 16.0634C137.496 14.521 136.657 13.4702 136.299 13.0216L136.279 12.9961C136.228 12.932 136.15 12.8943 136.066 12.8943L136.065 12.8925ZM130.249 15.1039C130.285 15.1092 130.314 15.1118 130.337 15.1118C130.68 15.1118 130.959 14.8326 130.959 14.4903C130.959 14.1479 130.68 13.8687 130.337 13.8687C129.995 13.8687 129.716 14.1479 129.716 14.4903C129.716 14.514 129.718 14.5438 129.724 14.5816L129.794 15.0372L130.249 15.1039Z" fill="url(#paint0_linear_4573_22141)"/>
<path d="M172.381 9.31804C174.247 9.31804 176.075 9.9071 177.395 11.3372C179.039 13.1175 179.244 16.1909 178.758 18.5858L178.662 19.0124C178.631 19.138 178.599 19.2626 178.564 19.3838C177.784 22.0912 175.864 24.5194 173.302 25.7159C171.819 26.4086 170.145 26.7817 168.48 26.7817C167.157 26.7817 165.84 26.5464 164.628 26.0478C163.431 25.5544 162.43 24.7213 161.789 23.659L160.37 31.6082C160.047 33.4158 158.475 34.7317 156.639 34.7317C154.279 34.7317 152.494 32.5985 152.908 30.2756L154.302 22.4686C153.336 23.8539 152.038 25.0031 150.512 25.7159C149.029 26.4086 147.355 26.7817 145.69 26.7817C144.367 26.7817 143.05 26.5464 141.839 26.0478C140.043 25.3086 138.688 23.803 138.329 21.9068C137.338 23.5423 135.903 24.9091 134.174 25.7168C132.691 26.4094 131.017 26.7825 129.352 26.7825C128.029 26.7825 126.712 26.5473 125.501 26.0486C124.303 25.5553 123.302 24.7222 122.662 23.6599L121.242 31.6091C120.919 33.4167 119.348 34.7326 117.511 34.7326C115.151 34.7326 113.366 32.5994 113.78 30.2765L116.964 12.4424C117.287 10.6349 118.859 9.31892 120.695 9.31892C123.055 9.31892 124.84 11.4522 124.426 13.775L124.385 14.0042C124.686 13.5907 125 13.2027 125.322 12.8462C125.386 12.776 125.451 12.7058 125.516 12.6373C126.893 11.187 129.021 10.0124 131.24 9.53751C131.901 9.39617 132.58 9.3198 133.253 9.3198C135.119 9.3198 136.947 9.90885 138.268 11.3389C139.229 12.3801 139.698 13.8637 139.824 15.3956C140.363 14.4519 140.997 13.5828 141.66 12.848C141.724 12.7778 141.788 12.7075 141.854 12.6391C143.23 11.1888 145.358 10.0142 147.577 9.53927C148.238 9.39793 148.917 9.32155 149.59 9.32155C151.457 9.32155 153.285 9.91061 154.605 11.3407C155.204 11.9903 155.612 12.812 155.865 13.7092L156.09 12.445C156.413 10.6375 157.985 9.32155 159.821 9.32155C162.181 9.32155 163.967 11.4548 163.552 13.7777L163.511 14.0068C163.812 13.5933 164.126 13.2053 164.448 12.8489C164.513 12.7786 164.577 12.7084 164.642 12.6399C166.019 11.1897 168.147 10.0151 170.366 9.54014C171.027 9.39881 171.706 9.32243 172.379 9.32243M129.095 14.6705C128.624 14.386 128.072 14.2219 127.481 14.2219C127.437 14.2219 127.394 14.2227 127.35 14.2245C126.055 14.2781 124.983 15.2595 124.755 16.5368L124.642 17.1733C124.613 17.3366 124.598 17.5007 124.598 17.6631C124.592 18.7921 125.26 19.8473 126.336 20.2713C126.638 20.3898 126.953 20.4557 127.271 20.475C127.283 20.475 127.295 20.4767 127.306 20.4776C127.338 20.4794 127.37 20.4803 127.402 20.4803C127.431 20.4803 127.459 20.4811 127.488 20.4811C127.497 20.4811 127.506 20.4811 127.514 20.4811C127.535 20.4811 127.556 20.4811 127.577 20.4794C127.598 20.4794 127.619 20.4794 127.641 20.4776C127.67 20.4759 127.699 20.4732 127.728 20.4715C127.739 20.4715 127.75 20.4697 127.76 20.4688C127.808 20.4645 127.854 20.4592 127.901 20.453C128.46 20.3819 129.005 20.1756 129.477 19.8622C129.578 19.7955 129.672 19.7191 129.759 19.6366C130.265 19.1547 130.536 18.4234 130.592 17.686C130.601 17.6052 130.607 17.5236 130.61 17.4419C130.627 16.8125 130.458 16.2243 130.155 15.7265C130.215 15.7353 130.274 15.7415 130.337 15.7415C131.031 15.7415 131.594 15.1788 131.594 14.4844C131.594 13.7899 131.031 13.2272 130.337 13.2272C129.642 13.2272 129.081 13.7899 129.081 14.4844C129.081 14.5484 129.087 14.6099 129.096 14.6713M166.608 20.4811C166.661 20.4811 166.714 20.4803 166.768 20.4776C167.051 20.4636 167.324 20.41 167.583 20.324C167.519 20.4355 167.482 20.5645 167.482 20.7015C167.482 21.1202 167.822 21.46 168.241 21.46C168.66 21.46 168.999 21.1202 168.999 20.7015C168.999 20.317 168.713 20.0001 168.343 19.95C169.159 19.4005 169.708 18.4787 169.737 17.4402C169.786 15.6704 168.366 14.221 166.608 14.221C166.564 14.221 166.521 14.2219 166.477 14.2236C165.182 14.2772 164.11 15.2586 163.882 16.536L163.769 17.1724C163.536 18.4734 164.233 19.7815 165.463 20.2652C165.818 20.4048 166.204 20.4811 166.608 20.4811ZM144.198 20.4811C144.25 20.4811 144.304 20.4803 144.357 20.4776C145.975 20.3977 147.282 19.0598 147.327 17.441C147.376 15.6712 145.957 14.2219 144.198 14.2219C144.155 14.2219 144.112 14.2227 144.068 14.2245C142.772 14.2781 141.701 15.2595 141.473 16.5368L141.359 17.1733C141.127 18.4743 141.824 19.7823 143.054 20.2661C143.408 20.4056 143.795 20.482 144.198 20.482M172.381 8.04775C171.633 8.04775 170.867 8.13027 170.103 8.29356C168.028 8.73689 165.984 9.74908 164.454 11.0668C164.263 10.6357 164.012 10.2293 163.702 9.85881C162.738 8.70792 161.324 8.04688 159.823 8.04688C158.022 8.04688 156.414 8.99147 155.516 10.4487C154.755 9.63232 153.827 9.01078 152.757 8.60345C151.789 8.23474 150.724 8.04688 149.593 8.04688C148.845 8.04688 148.079 8.1294 147.315 8.29268C144.889 8.81151 142.504 10.1073 140.935 11.7603C140.863 11.8376 140.79 11.9157 140.72 11.9929C140.612 12.1123 140.506 12.2344 140.401 12.359C140.093 11.6374 139.691 11.0036 139.203 10.4751C138.438 9.64549 137.501 9.01605 136.42 8.60433C135.451 8.23562 134.386 8.04775 133.256 8.04775C132.508 8.04775 131.741 8.13027 130.978 8.29356C128.903 8.73689 126.859 9.74908 125.328 11.0668C125.138 10.6357 124.887 10.2293 124.577 9.85881C123.613 8.70792 122.199 8.04688 120.698 8.04688C118.243 8.04688 116.149 9.80087 115.717 12.2168L112.533 30.0509C112.268 31.5292 112.67 33.0374 113.634 34.1883C114.598 35.3392 116.012 36.0003 117.514 36.0003C119.968 36.0003 122.063 34.2463 122.495 31.8303L123.472 26.3576C123.947 26.7018 124.466 26.9932 125.019 27.2206C126.357 27.771 127.816 28.0502 129.354 28.0502C131.2 28.0502 133.053 27.6402 134.713 26.8651C135.942 26.2909 137.053 25.471 138 24.4483C138.77 25.6571 139.933 26.6333 141.357 27.2197C142.695 27.7702 144.153 28.0493 145.691 28.0493C147.537 28.0493 149.39 27.6393 151.05 26.8642C151.502 26.6535 151.939 26.4077 152.358 26.1303L151.659 30.0509C151.394 31.5292 151.797 33.0374 152.76 34.1883C153.724 35.3392 155.139 36.0003 156.64 36.0003C159.094 36.0003 161.189 34.2463 161.621 31.8303L162.598 26.3576C163.073 26.7018 163.593 26.9932 164.146 27.2206C165.483 27.771 166.942 28.0502 168.48 28.0502C170.326 28.0502 172.179 27.6402 173.839 26.8651C176.655 25.55 178.878 22.8839 179.784 19.7332C179.821 19.6059 179.857 19.4689 179.895 19.3144L179.898 19.3021L179.901 19.2899L179.997 18.8632L179.999 18.8509L180.002 18.8386C180.529 16.2436 180.367 12.6838 178.329 10.476C177.563 9.64637 176.626 9.01693 175.545 8.60521C174.577 8.2365 173.512 8.04775 172.381 8.04775ZM166.608 19.2117C166.373 19.2117 166.144 19.1687 165.929 19.0836C165.273 18.8255 164.891 18.1153 165.02 17.3954L165.133 16.7589C165.26 16.0531 165.847 15.5202 166.53 15.4922C166.555 15.4913 166.582 15.4904 166.608 15.4904C167.115 15.4904 167.589 15.6906 167.942 16.054C168.294 16.4174 168.481 16.8968 168.467 17.405C168.451 17.9994 168.139 18.5568 167.634 18.8966L167.423 19.0388L167.183 19.1178C167.027 19.1696 166.865 19.2003 166.705 19.2082C166.672 19.21 166.64 19.2117 166.608 19.2117ZM144.198 19.2117C143.962 19.2117 143.733 19.1687 143.518 19.0836C142.862 18.8255 142.48 18.1153 142.609 17.3954L142.722 16.7589C142.848 16.0531 143.436 15.5202 144.119 15.4922C144.144 15.4913 144.17 15.4904 144.197 15.4904C144.703 15.4904 145.177 15.6906 145.53 16.054C145.883 16.4174 146.07 16.8968 146.056 17.405C146.029 18.369 145.255 19.1617 144.293 19.2091C144.261 19.2108 144.229 19.2117 144.198 19.2117ZM127.379 19.2082C127.368 19.2073 127.357 19.2065 127.347 19.2056C127.154 19.1933 126.968 19.1538 126.801 19.0879C126.239 18.8667 125.864 18.2961 125.868 17.6684C125.868 17.5754 125.876 17.4841 125.892 17.3945L126.005 16.7581C126.132 16.0522 126.719 15.5194 127.402 15.4913C127.428 15.4904 127.454 15.4895 127.48 15.4895C127.819 15.4895 128.15 15.5817 128.439 15.7555L128.831 15.9925L129.07 16.385C129.256 16.6913 129.35 17.0434 129.34 17.4042C129.339 17.4454 129.335 17.4928 129.329 17.5481L129.327 17.5683L129.325 17.5885C129.289 18.0635 129.124 18.4857 128.882 18.7157C128.848 18.7482 128.811 18.7781 128.774 18.8026C128.461 19.0107 128.103 19.145 127.739 19.1915H127.735L127.73 19.1924C127.702 19.1959 127.678 19.1994 127.654 19.2012H127.648L127.636 19.2029H127.631H127.627L127.6 19.2047C127.593 19.2047 127.588 19.2056 127.582 19.2065C127.567 19.2065 127.553 19.2065 127.538 19.2073C127.524 19.2073 127.51 19.2073 127.497 19.2082H127.487C127.47 19.2082 127.452 19.2082 127.434 19.2082H127.429H127.425C127.409 19.2082 127.393 19.2082 127.377 19.2073L127.379 19.2082Z" fill="white"/>
<path d="M153.086 19.9112C153.37 19.9112 153.651 19.7778 153.828 19.5276C154.246 18.9342 154.588 18.2608 154.512 16.0328C154.453 14.2805 153.521 13.1138 153.124 12.6161L153.104 12.5915C152.925 12.3668 152.661 12.25 152.395 12.25C152.196 12.25 151.997 12.315 151.83 12.4475C151.438 12.76 151.374 13.3307 151.686 13.7222L151.707 13.7477C152.017 14.1357 152.661 14.9425 152.7 16.0942C152.761 17.8939 152.521 18.2336 152.346 18.4812C152.057 18.8903 152.154 19.4565 152.563 19.7453C152.722 19.8577 152.905 19.9112 153.086 19.9112Z" fill="#80A3FF"/>
<path d="M136.758 19.9112C137.042 19.9112 137.323 19.7778 137.499 19.5276C137.918 18.9342 138.26 18.2608 138.184 16.0328C138.125 14.2805 137.193 13.1138 136.795 12.6161L136.776 12.5915C136.597 12.3668 136.333 12.25 136.067 12.25C135.868 12.25 135.669 12.315 135.501 12.4475C135.11 12.76 135.046 13.3307 135.358 13.7222L135.379 13.7477C135.688 14.1357 136.333 14.9425 136.371 16.0942C136.433 17.8939 136.193 18.2336 136.018 18.4812C135.729 18.8903 135.826 19.4565 136.235 19.7453C136.394 19.8577 136.577 19.9112 136.758 19.9112Z" fill="#80A3FF"/>
<path d="M156.6 30.8214C156.571 30.8214 156.539 30.8188 156.504 30.8144C156.462 30.8082 156.421 30.8056 156.379 30.8056C155.934 30.8056 155.545 31.1339 155.481 31.5878C155.413 32.0838 155.759 32.542 156.255 32.6105C156.372 32.6272 156.487 32.6351 156.601 32.6351C156.923 32.6351 157.225 32.5684 157.501 32.4358C158.584 31.9161 158.753 30.7924 159.092 28.553C159.124 28.3405 159.158 28.1158 159.195 27.877C159.304 27.1686 159.421 26.4469 159.544 25.7323C159.628 25.239 159.297 24.7702 158.803 24.685C158.751 24.6763 158.7 24.6719 158.649 24.6719C158.215 24.6719 157.832 24.9844 157.756 25.426C157.632 26.1502 157.513 26.8815 157.402 27.6005C157.365 27.841 157.331 28.0675 157.299 28.2817C157.127 29.4133 156.934 30.6959 156.716 30.8003C156.688 30.8135 156.649 30.8205 156.601 30.8205" fill="#80A3FF"/>
<path d="M117.721 30.8214C117.692 30.8214 117.66 30.8188 117.625 30.8144C117.583 30.8082 117.542 30.8056 117.5 30.8056C117.055 30.8056 116.666 31.1339 116.602 31.5878C116.534 32.0838 116.88 32.542 117.376 32.6105C117.493 32.6272 117.608 32.6351 117.722 32.6351C118.044 32.6351 118.346 32.5684 118.622 32.4358C119.704 31.9161 119.873 30.7924 120.211 28.553C120.244 28.3405 120.277 28.1158 120.314 27.877C120.425 27.1607 120.542 26.439 120.663 25.7323C120.748 25.239 120.417 24.7702 119.923 24.685C119.871 24.6763 119.819 24.6719 119.769 24.6719C119.334 24.6719 118.952 24.9835 118.876 25.4251C118.753 26.1423 118.634 26.8736 118.522 27.5996C118.485 27.8401 118.451 28.0666 118.419 28.2808C118.248 29.4124 118.054 30.695 117.837 30.7995C117.809 30.8126 117.769 30.8197 117.721 30.8197" fill="#80A3FF"/>
<path d="M176.359 19.5206C176.644 19.5206 176.925 19.3872 177.101 19.137C177.52 18.5435 177.861 17.8702 177.786 15.6421C177.726 13.8899 176.795 12.7232 176.397 12.2254L176.378 12.2009C176.199 11.9761 175.934 11.8594 175.668 11.8594C175.47 11.8594 175.271 11.9243 175.103 12.0569C174.711 12.3694 174.647 12.94 174.96 13.3316L174.98 13.357C175.29 13.7451 175.934 14.5518 175.973 15.7036C176.034 17.5032 175.795 17.843 175.619 18.0905C175.33 18.4996 175.428 19.0659 175.837 19.3547C175.996 19.4671 176.178 19.5206 176.359 19.5206Z" fill="#80A3FF"/>
<path d="M106.626 27.3424C105.17 27.3424 103.794 27.079 102.533 26.5602C100.446 25.7008 98.9856 23.9441 98.6248 21.8601L98.6055 21.7503L99.5966 16.2013L99.6308 16.1266C100.263 14.7607 101.126 13.4526 102.127 12.3456C102.194 12.271 102.262 12.1973 102.331 12.1253C103.816 10.5618 106.078 9.3345 108.383 8.84113C109.103 8.68751 109.826 8.60938 110.529 8.60938C112.773 8.60938 114.668 9.3784 116.01 10.8322C116.079 10.9059 116.13 10.9665 116.147 10.9867C117.412 12.4738 118.255 15.0073 117.118 17.0581C116.798 17.6357 115.908 18.0167 114.927 18.3029H116.433C116.726 18.3029 116.995 18.4372 117.172 18.6716C117.348 18.906 117.403 19.2018 117.322 19.4836C116.465 22.4605 114.37 24.9774 111.718 26.2161C110.142 26.9526 108.382 27.3415 106.628 27.3415L106.626 27.3424ZM104.626 14.8528C104.591 14.8528 104.556 14.8528 104.521 14.8546C103.543 14.895 102.703 15.6473 102.526 16.6437L102.413 17.2802C102.231 18.2968 102.779 19.3028 103.715 19.6706C104.005 19.7848 104.312 19.8427 104.628 19.8427C104.67 19.8427 104.713 19.8418 104.756 19.8392C106.046 19.7751 107.087 18.712 107.123 17.4189C107.142 16.7385 106.891 16.095 106.418 15.6078C105.944 15.1206 105.308 14.852 104.629 14.852L104.626 14.8528ZM113.843 12.2464C113.8 12.2464 113.736 12.257 113.674 12.3061C113.557 12.4001 113.537 12.5712 113.631 12.6889L113.651 12.7135C113.976 13.1208 114.737 14.0733 114.783 15.4349C114.788 15.5824 114.907 15.6974 115.054 15.6974H115.064C115.214 15.6921 115.332 15.5657 115.326 15.4164C115.274 13.874 114.434 12.8232 114.076 12.3746L114.056 12.3491C114.004 12.2842 113.927 12.2464 113.843 12.2464Z" fill="url(#paint1_linear_4573_22141)"/>
<path d="M110.528 9.25466C112.394 9.25466 114.223 9.84372 115.542 11.2738C115.602 11.3387 115.648 11.3914 115.662 11.4099C116.659 12.5809 117.61 14.8704 116.561 16.7623C116.058 17.6718 112.233 18.3293 109.728 18.6743C109.557 18.698 109.574 18.9499 109.747 18.9499H116.431C116.624 18.9499 116.763 19.1352 116.71 19.3204C115.931 22.0287 114.009 24.456 111.448 25.6525C109.965 26.3452 108.291 26.7183 106.626 26.7183C105.303 26.7183 103.986 26.483 102.774 25.9844C100.953 25.2347 99.585 23.6975 99.2497 21.7627L100.207 16.4041C100.835 15.046 101.688 13.788 102.597 12.782C102.661 12.7117 102.725 12.6415 102.791 12.573C104.168 11.1237 106.296 9.94819 108.515 9.47326C109.176 9.33192 109.854 9.25466 110.528 9.25466ZM104.625 20.488C104.678 20.488 104.731 20.4871 104.785 20.4845C106.403 20.4046 107.709 19.0667 107.755 17.4479C107.804 15.6781 106.384 14.2287 104.626 14.2287C104.582 14.2287 104.539 14.2296 104.495 14.2314C103.199 14.2849 102.128 15.2664 101.9 16.5437L101.787 17.1801C101.554 18.4812 102.251 19.7892 103.481 20.2729C103.836 20.4125 104.222 20.4889 104.626 20.4889M110.528 7.98438C109.78 7.98438 109.013 8.0669 108.25 8.23018C105.824 8.74901 103.439 10.0448 101.87 11.6978C101.799 11.7733 101.727 11.8505 101.656 11.9296C100.613 13.0848 99.7132 14.4473 99.0548 15.8703L98.9863 16.0187L98.9573 16.1802L98.0004 21.5388L97.9609 21.7583L97.9987 21.9786C98.3972 24.2787 100.002 26.2153 102.292 27.1572C103.629 27.7076 105.088 27.9868 106.626 27.9868C108.472 27.9868 110.325 27.5768 111.985 26.8017C114.801 25.4866 117.024 22.8205 117.93 19.6698C118.064 19.201 117.97 18.6892 117.677 18.3003C117.558 18.1414 117.409 18.008 117.242 17.907C117.425 17.7437 117.567 17.5682 117.673 17.3759C118.3 16.2461 118.451 14.9108 118.113 13.515C117.858 12.4616 117.317 11.3932 116.63 10.5855C116.579 10.5267 116.528 10.4679 116.475 10.4117C115.709 9.58211 114.773 8.95267 113.692 8.54007C112.722 8.17136 111.658 7.98438 110.528 7.98438ZM104.625 19.2186C104.39 19.2186 104.161 19.1756 103.945 19.0904C103.289 18.8323 102.907 18.1221 103.035 17.4022L103.148 16.7658C103.275 16.06 103.862 15.5271 104.545 15.499C104.57 15.4981 104.597 15.4973 104.623 15.4973C105.13 15.4973 105.604 15.6974 105.957 16.0608C106.31 16.4243 106.497 16.9036 106.482 17.4119C106.455 18.3758 105.681 19.1685 104.72 19.2159C104.687 19.2177 104.655 19.2186 104.623 19.2186H104.625ZM115.054 16.3426C115.065 16.3426 115.075 16.3426 115.086 16.3426C115.586 16.326 115.978 15.9063 115.961 15.406C115.901 13.6537 114.97 12.4879 114.572 11.9893L114.553 11.9647C114.374 11.7399 114.109 11.6232 113.843 11.6232C113.645 11.6232 113.446 11.6881 113.279 11.8207C112.887 12.1332 112.823 12.7038 113.135 13.0954L113.155 13.1208C113.465 13.5089 114.109 14.3156 114.148 15.4665C114.165 15.9564 114.567 16.3426 115.054 16.3426Z" fill="white"/>
<path d="M80.8623 27.422C78.4517 27.422 76.3491 26.6715 74.9322 25.3336C74.2914 26.5336 73.0299 27.3246 71.606 27.3246H70.2786C69.2181 27.3246 68.2367 26.8971 67.5159 26.1201C67.1358 25.7111 66.8549 25.2247 66.6881 24.7032C66.2123 25.1317 65.7128 25.5004 65.1931 25.8067C63.5593 26.7689 61.5692 27.3404 59.5913 27.4141C59.45 27.4194 59.3069 27.422 59.1664 27.422C56.7558 27.422 54.6533 26.6715 53.2364 25.3336C52.5955 26.5336 51.334 27.3246 49.9101 27.3246H48.5827C47.5662 27.3246 46.6137 26.9269 45.9008 26.2044C45.749 26.0508 45.6129 25.8875 45.4917 25.7146C44.9483 26.6829 43.9098 27.3228 42.7572 27.3228L40.1455 27.3105C38.9533 27.3053 37.8955 26.6258 37.3723 25.6075C37.0703 25.7901 36.7621 25.9586 36.4505 26.1114C34.772 26.9366 32.939 27.3553 31.0033 27.3553C30.5854 27.3553 30.1587 27.3351 29.7347 27.2956C27.0133 27.2851 24.557 25.898 23.3921 23.8096C22.6713 24.626 21.8628 25.3064 21.0148 25.8059C19.381 26.768 17.3918 27.3395 15.413 27.4133C15.2717 27.4185 15.1286 27.4212 14.9881 27.4212C12.5775 27.4212 10.475 26.6706 9.05807 25.3327C8.41722 26.5327 7.15571 27.3237 5.73179 27.3237H4.40444C3.28515 27.3237 2.23082 26.8312 1.51272 25.9735C0.794612 25.1159 0.495255 23.9913 0.6919 22.8896L4.10948 3.75007C4.43078 1.94866 5.99252 0.641503 7.82202 0.641503H9.14937C10.2687 0.641503 11.3221 1.13399 12.0411 1.99168C12.7592 2.84937 13.0586 3.97393 12.8619 5.07566L11.6689 11.7572C12.631 10.874 13.9004 10.019 15.5324 9.47207C16.5938 9.11653 17.7412 8.92779 18.8508 8.92779C21.0745 8.92779 23.0225 9.67574 24.3358 11.0338C24.4683 11.1708 24.5939 11.3121 24.7141 11.4578C25.4437 9.98651 26.9659 8.99977 28.6637 8.99977C29.9946 8.99977 31.2394 9.59146 32.0795 10.6238C32.9197 11.6562 33.2462 12.995 32.9767 14.2986L32.8766 14.7824C32.8705 14.8579 32.8635 14.9254 32.8547 14.9948L32.8433 15.0817C32.6379 16.6724 32.4263 18.3176 32.7599 19.8451C33.0162 21.0206 33.9152 22.2066 35.3426 22.2066C35.6507 22.2066 35.9764 22.1504 36.3109 22.0398C36.8956 21.8458 37.3854 21.4358 37.633 20.9354L39.38 12.5104C39.8013 10.4764 41.6159 8.99977 43.693 8.99977C45.0361 8.99977 46.2546 9.59673 47.0693 10.5703L48.2869 3.75007C48.6082 1.94866 50.17 0.641503 51.9994 0.641503H53.3268C54.4461 0.641503 55.5004 1.13399 56.2185 1.99168C56.9366 2.85024 57.236 3.97393 57.0393 5.07566L55.8463 11.7572C56.8085 10.874 58.0779 10.019 59.7098 9.4712C60.7712 9.11565 61.9186 8.92691 63.0282 8.92691C65.2519 8.92691 67.1999 9.67486 68.5132 11.0329C68.5615 11.083 68.6089 11.133 68.6554 11.1839L69.9828 3.74919C70.3041 1.94778 71.8658 0.640625 73.6953 0.640625H75.0227C76.142 0.640625 77.1954 1.13311 77.9144 1.9908C78.6325 2.84849 78.9319 3.97305 78.7352 5.07478L77.5422 11.7563C78.5043 10.8732 79.7737 10.0181 81.4057 9.4712C82.4671 9.11565 83.6145 8.92691 84.7241 8.92691C86.9478 8.92691 88.8958 9.67486 90.2091 11.0329C90.7867 11.6308 91.2458 12.3103 91.5803 13.0564L93.1377 4.33561C93.5152 2.22256 95.3473 0.688908 97.4937 0.688908C98.807 0.688908 100.043 1.26655 100.887 2.27348C101.729 3.2804 102.081 4.59897 101.85 5.89209C100.768 11.8485 99.1573 20.7818 99.0133 21.743L99.0168 21.7615L98.6665 23.7253C98.289 25.8383 96.4569 27.372 94.3105 27.372C92.9972 27.372 91.7612 26.7944 90.9175 25.7874C90.2653 25.0088 89.908 24.0431 89.886 23.0476C89.0371 24.1888 88.0109 25.1431 86.8889 25.8041C85.2552 26.7663 83.2659 27.3378 81.2872 27.4115C81.1459 27.4168 81.0028 27.4194 80.8623 27.4194V27.422ZM70.8773 24.0088C70.7421 24.0088 70.6271 24.1098 70.6087 24.2432C70.5955 24.3407 70.6359 24.4109 70.6614 24.4443C70.6868 24.4776 70.7439 24.5365 70.8413 24.5496C70.9291 24.5619 71.016 24.5681 71.0994 24.5681C71.3259 24.5681 71.5357 24.5224 71.7245 24.4311C72.4663 24.0747 72.6217 23.2785 72.9614 21.0258C72.9939 20.8125 73.0281 20.5869 73.065 20.3481C73.0878 20.1997 72.986 20.061 72.8376 20.0373C72.8236 20.0356 72.8095 20.0338 72.7955 20.0338C72.6629 20.0338 72.5479 20.133 72.5277 20.2647C72.4944 20.4833 72.4628 20.6905 72.4329 20.8871L72.4241 20.9442C72.0879 23.1696 71.9615 23.713 71.4892 23.9395C71.3742 23.9948 71.2434 24.022 71.0985 24.022C71.0406 24.022 70.9792 24.0176 70.916 24.0088C70.9037 24.0071 70.8905 24.0062 70.8782 24.0062L70.8773 24.0088ZM49.3535 24.0088C49.2183 24.0088 49.1033 24.1098 49.0849 24.2432C49.0638 24.3916 49.1683 24.5294 49.3167 24.5505C49.4044 24.5628 49.4922 24.5689 49.5747 24.5689C49.8012 24.5689 50.0111 24.5233 50.1998 24.432C50.9416 24.0756 51.097 23.2793 51.4367 21.0267L51.4438 20.9793C51.4736 20.78 51.5061 20.5702 51.5394 20.349C51.5623 20.2006 51.4604 20.0619 51.3121 20.0382C51.298 20.0365 51.284 20.0347 51.2699 20.0347C51.1374 20.0347 51.0224 20.1339 51.0013 20.2656C50.9679 20.4842 50.9363 20.6913 50.9065 20.888L50.8977 20.9451C50.5615 23.1705 50.4351 23.7139 49.9636 23.9404C49.8495 23.9957 49.7178 24.0238 49.573 24.0238C49.5151 24.0238 49.4536 24.0194 49.3904 24.0106C49.3781 24.0088 49.3649 24.008 49.3526 24.008L49.3535 24.0088ZM4.84777 24.0088C4.71346 24.0088 4.59758 24.1098 4.57914 24.2432C4.56597 24.3407 4.60636 24.4109 4.63181 24.4443C4.65727 24.4776 4.71433 24.5365 4.81178 24.5496C4.89957 24.5619 4.98735 24.5681 5.06987 24.5681C5.29637 24.5681 5.50618 24.5224 5.69492 24.4311C6.43673 24.0747 6.59211 23.2785 6.93185 21.0258C6.96433 20.8125 6.99769 20.5869 7.03456 20.3481C7.14518 19.6291 7.26369 18.904 7.38572 18.1929C7.41117 18.0454 7.3111 17.9041 7.16361 17.8786C7.14869 17.876 7.13201 17.8742 7.11708 17.8742C6.98453 17.8742 6.87216 17.969 6.85021 18.1007C6.72819 18.8144 6.60967 19.5431 6.49818 20.2647C6.46394 20.485 6.43234 20.6949 6.40249 20.8933L6.39459 20.9442C6.05836 23.1696 5.93195 23.713 5.45965 23.9395C5.34465 23.9948 5.21385 24.022 5.069 24.022C5.01106 24.022 4.94961 24.0176 4.8864 24.0088C4.87411 24.0071 4.86094 24.0062 4.84777 24.0062V24.0088ZM95.9521 23.2275C95.8257 23.2275 95.7142 23.3171 95.6861 23.4409L95.6651 23.5313C95.6133 23.7551 95.5887 23.8658 95.5834 23.8921C95.565 23.9887 95.6019 24.0615 95.6256 24.0966C95.6493 24.1318 95.7037 24.1923 95.8003 24.2108C95.8169 24.2143 95.8345 24.216 95.8521 24.216C95.9811 24.216 96.0926 24.1238 96.1181 23.9966C96.1295 23.9421 96.1672 23.7788 96.1927 23.6674L96.2181 23.5576C96.2506 23.4119 96.1576 23.267 96.011 23.2346C95.9916 23.2302 95.9715 23.2275 95.9521 23.2275ZM57.8786 20.7194C57.8479 20.7949 57.8321 20.8739 57.8321 20.9547C57.8321 21.298 58.1112 21.5771 58.4545 21.5771C58.7977 21.5771 59.0769 21.298 59.0769 20.9547C59.0769 20.7133 58.9408 20.4982 58.7214 20.3937L58.127 20.1093L57.8786 20.7194ZM97.7307 13.9563C97.5982 13.9563 97.4858 14.0511 97.4638 14.1828C97.3611 14.7867 96.5184 20.0961 96.3884 20.9363C96.3735 21.0328 96.413 21.1048 96.4376 21.1382C96.4622 21.1715 96.5184 21.2312 96.6158 21.2462C96.6299 21.2488 96.6439 21.2497 96.658 21.2497C96.7905 21.2497 96.9055 21.1505 96.9257 21.0188C97.0451 20.241 97.9001 14.8535 97.9993 14.2741C98.0248 14.1266 97.9247 13.9852 97.7773 13.9598C97.7623 13.9571 97.7456 13.9554 97.7298 13.9554L97.7307 13.9563ZM44.2171 15.3407C44.0907 15.3407 43.9792 15.4311 43.9519 15.5549C43.9291 15.669 42.9626 20.7335 42.9547 20.7756C42.9266 20.9231 43.024 21.0653 43.1715 21.0934C43.1891 21.0969 43.2066 21.0987 43.2233 21.0987C43.3532 21.0987 43.4656 21.0056 43.4893 20.8775L43.5016 20.8134C43.7878 19.3148 44.4558 15.8139 44.4839 15.6699C44.5138 15.5215 44.4199 15.3784 44.2759 15.3468C44.2566 15.3424 44.2364 15.3407 44.2171 15.3407ZM78.7694 14.8622C78.7343 14.8622 78.6992 14.8622 78.665 14.864C77.6861 14.9044 76.8469 15.6567 76.6687 16.6531L76.5554 17.2896C76.3737 18.3062 76.9215 19.3122 77.8573 19.68C78.1479 19.7942 78.4543 19.8521 78.7703 19.8521C78.8125 19.8521 78.8555 19.8512 78.8985 19.8486C80.189 19.7845 81.2284 18.7214 81.2653 17.4283C81.2846 16.747 81.0335 16.1044 80.5603 15.6172C80.0863 15.13 79.4507 14.8614 78.7712 14.8614L78.7694 14.8622ZM57.0745 14.8622C57.0393 14.8622 57.0042 14.8622 56.97 14.864C55.9912 14.9044 55.1519 15.6567 54.9737 16.6531L54.8605 17.2896C54.6787 18.3062 55.2265 19.3122 56.1623 19.68C56.4529 19.7942 56.7593 19.8521 57.0745 19.8521C57.1166 19.8521 57.1596 19.8512 57.2026 19.8486L57.2483 19.8451L58.005 19.7924L58.6064 19.321C59.198 18.8566 59.5492 18.1666 59.5703 17.4283C59.5896 16.747 59.3385 16.1044 58.8653 15.6172C58.3913 15.13 57.7557 14.8614 57.0762 14.8614L57.0745 14.8622ZM12.8962 14.8622C12.861 14.8622 12.8259 14.8622 12.7917 14.864C11.8129 14.9044 10.9736 15.6567 10.7954 16.6531L10.6821 17.2896C10.5004 18.3062 11.0482 19.3122 11.984 19.68C12.2658 19.7906 12.5696 19.8468 12.8865 19.8468C13.4554 19.8468 14.0427 19.6642 14.5422 19.3333C14.6106 19.2876 14.6756 19.2358 14.7371 19.177C15.4394 18.5072 15.5394 17.1886 15.1918 16.3775C15.1453 16.2695 15.09 16.1624 15.0259 16.0588L14.7107 15.5479L14.1831 15.2283C13.7881 14.9887 13.3439 14.8622 12.8962 14.8622ZM88.0267 12.3471C87.9836 12.3471 87.9196 12.3577 87.8572 12.4068C87.7405 12.4999 87.7212 12.6719 87.8142 12.7896L87.8344 12.8142C88.1592 13.2215 88.9203 14.1731 88.966 15.5356C88.9713 15.6831 89.0898 15.7981 89.2373 15.7981H89.2478C89.3452 15.7945 89.4084 15.7428 89.4374 15.712C89.4664 15.6813 89.5138 15.6155 89.5103 15.5171C89.4576 13.9756 88.6184 12.9239 88.2602 12.4753L88.24 12.4498C88.1882 12.3849 88.1101 12.3471 88.0267 12.3471ZM65.9296 12.3471C65.8866 12.3471 65.8216 12.3577 65.7602 12.4068C65.6434 12.5008 65.6241 12.6719 65.7172 12.7896L65.7374 12.815C66.0622 13.2215 66.8224 14.174 66.8689 15.5356C66.8742 15.6831 66.9927 15.7981 67.1402 15.7981H67.1507C67.3 15.7928 67.4185 15.6664 67.4132 15.5171C67.3606 13.9747 66.5213 12.9239 66.1631 12.4753L66.1429 12.4498C66.092 12.3857 66.0139 12.348 65.9305 12.348L65.9296 12.3471ZM22.106 12.3471C22.0629 12.3471 21.998 12.3577 21.9365 12.4068C21.8602 12.4683 21.8408 12.5473 21.8356 12.5894C21.8312 12.6316 21.8321 12.7132 21.8935 12.7896L21.9137 12.815C22.2385 13.2215 22.9988 14.174 23.0453 15.5356C23.0506 15.6831 23.1691 15.7981 23.3166 15.7981H23.3271C23.4763 15.7928 23.5948 15.6664 23.5896 15.5171C23.5369 13.9747 22.6977 12.9239 22.3395 12.4753L22.3193 12.4498C22.2684 12.3857 22.1902 12.348 22.1068 12.348L22.106 12.3471ZM15.6597 15.0975C15.6975 15.1028 15.7282 15.1054 15.7519 15.1054C16.0951 15.1054 16.3734 14.8262 16.3734 14.4839C16.3734 14.1415 16.0943 13.8623 15.7519 13.8623C15.4095 13.8623 15.1304 14.1415 15.1304 14.4839C15.1304 14.5111 15.1339 14.5444 15.14 14.584L15.212 15.0308L15.6606 15.0966L15.6597 15.0975ZM44.8404 12.3954C44.7139 12.3954 44.6025 12.4849 44.5752 12.6087L44.555 12.6965C44.4971 12.9476 44.4778 13.0363 44.4725 13.06C44.455 13.1565 44.4918 13.2294 44.5155 13.2636C44.5392 13.2979 44.5937 13.3593 44.6902 13.3769C44.7078 13.3804 44.7245 13.3821 44.7412 13.3821C44.8702 13.3821 44.9817 13.29 45.0072 13.1627L45.0089 13.153C45.0194 13.1056 45.0572 12.9388 45.0827 12.8282L45.1072 12.7211C45.1388 12.578 45.0458 12.4332 44.9001 12.4007C44.8807 12.3963 44.8605 12.3945 44.8412 12.3945L44.8404 12.3954Z" fill="url(#paint2_linear_4573_22141)"/>
<path d="M75.025 1.27117C76.9783 1.27117 78.4557 3.03658 78.1125 4.95913L76.5253 13.8494C77.3566 12.7003 78.9631 10.9568 81.6099 10.0684C82.5826 9.74181 83.6554 9.55745 84.7264 9.55745C86.591 9.55745 88.4486 10.1184 89.7549 11.4703C91.1147 12.8767 91.6573 14.6772 91.6063 16.5322L93.7642 4.44382C94.0872 2.63627 95.6586 1.32033 97.4951 1.32033C99.8549 1.32033 101.64 3.45357 101.226 5.77643C101.226 5.77643 98.3493 21.6177 98.373 21.7564L98.0421 23.6105C97.719 25.4181 96.1476 26.734 94.3111 26.734C91.9514 26.734 90.1658 24.6008 90.5801 22.2779L91.1095 19.3133C90.3062 21.7889 88.6093 24.0521 86.5673 25.2548C85.0389 26.1555 83.1462 26.7042 81.2641 26.7753C81.1306 26.7805 80.9972 26.7832 80.8629 26.7832C78.5865 26.7832 76.1592 26.0545 74.7467 24.1732C74.7283 24.1487 74.7116 24.125 74.6949 24.1012C74.428 25.5972 73.127 26.6866 71.6074 26.6866H70.2801C68.4374 26.6866 67.0179 25.1143 67.1522 23.3217C66.4736 24.1039 65.7011 24.7676 64.8715 25.2565C63.3422 26.1572 61.4495 26.7059 59.5682 26.777C59.4348 26.7823 59.3013 26.7849 59.167 26.7849C56.8907 26.7849 54.4633 26.0563 53.0508 24.175C53.0324 24.1504 53.0157 24.1267 52.999 24.103C52.7322 25.5989 51.4312 26.6884 49.9116 26.6884H48.5842C46.8083 26.6884 45.4247 25.2276 45.4475 23.5166L45.2035 24.6956C44.963 25.8553 43.942 26.6857 42.7586 26.6857C42.7542 26.6857 42.7507 26.6857 42.7463 26.6857L40.1504 26.6734C38.9091 26.6673 37.9171 25.7683 37.7064 24.6324C37.2526 24.9493 36.7425 25.26 36.1728 25.5401C34.273 26.4742 32.4436 26.7191 31.0056 26.7191C30.55 26.7191 30.1339 26.6945 29.7678 26.6594C26.7619 26.6594 24.303 24.9063 23.5542 22.5974C22.75 23.6957 21.7703 24.6236 20.694 25.2574C19.1657 26.1581 17.273 26.7068 15.3908 26.7779C15.2573 26.7832 15.1239 26.7858 14.9896 26.7858C12.7133 26.7858 10.2859 26.0572 8.87342 24.1759C8.85499 24.1513 8.83831 24.1276 8.82163 24.1039C8.55475 25.5998 7.25374 26.6892 5.73413 26.6892H4.40678C2.4535 26.6892 0.976035 24.9238 1.31929 23.0013L4.73598 3.85652C5.00286 2.36061 6.30387 1.27117 7.82348 1.27117H9.15083C11.1041 1.27117 12.5816 3.03658 12.2383 4.95913L10.6511 13.8494C11.4825 12.7003 13.089 10.9568 15.7358 10.0684C16.7085 9.74181 17.7812 9.55745 18.8523 9.55745C20.7169 9.55745 22.5745 10.1184 23.8807 11.4703C24.3048 11.9084 24.6489 12.386 24.921 12.8908L24.9737 12.6344C25.3363 10.8848 26.8778 9.63032 28.6652 9.63032C31.0547 9.63032 32.8412 11.825 32.3566 14.1654L32.2478 14.6895C32.2434 14.7589 32.2364 14.8309 32.2267 14.909C32.0134 16.5647 31.7781 18.3116 32.1416 19.9761C32.4673 21.4676 33.6313 22.8371 35.3449 22.8371C35.7101 22.8371 36.0999 22.7748 36.5125 22.6387C37.3008 22.378 37.9364 21.81 38.2411 21.134L40.003 12.6353C40.3655 10.8857 41.9071 9.63119 43.6944 9.63119C45.4818 9.63119 46.9777 10.8997 47.364 12.5361L48.9134 3.85827C49.1803 2.36237 50.4813 1.27292 52.0009 1.27292H53.3283C55.2815 1.27292 56.759 3.03833 56.4157 4.96089L54.8285 13.8512C55.6599 12.702 57.2664 10.9585 59.9132 10.0701C60.8859 9.74356 61.9587 9.55921 63.0297 9.55921C64.8943 9.55921 66.7519 10.1202 68.0582 11.4721C68.4427 11.8698 68.7613 12.2999 69.0203 12.7538L70.6084 3.85827C70.8753 2.36237 72.1763 1.27292 73.6959 1.27292H75.0232M14.5138 14.6799C14.0327 14.3884 13.4753 14.2216 12.8976 14.2216C12.8537 14.2216 12.8107 14.2225 12.7668 14.2242C11.4711 14.2778 10.4001 15.2593 10.1718 16.5366L10.0586 17.173C9.82592 18.4741 10.523 19.7821 11.7529 20.2658C12.1181 20.4098 12.5034 20.4765 12.888 20.4765C13.5946 20.4765 14.3022 20.25 14.8948 19.8567C14.9957 19.79 15.0897 19.7136 15.1766 19.6311C16.0588 18.7901 16.2327 17.1888 15.777 16.1222C15.7174 15.9818 15.6471 15.8474 15.5681 15.7202C15.6287 15.7289 15.6901 15.7351 15.7533 15.7351C16.4477 15.7351 17.0105 15.1724 17.0105 14.478C17.0105 13.7836 16.4477 13.2208 15.7533 13.2208C15.0589 13.2208 14.4971 13.7836 14.4971 14.478C14.4971 14.5464 14.5041 14.6132 14.5147 14.679M78.7709 20.4818C78.8236 20.4818 78.8771 20.4809 78.9307 20.4783C80.5486 20.3984 81.8549 19.0605 81.9005 17.4417C81.9497 15.6719 80.5302 14.2225 78.7718 14.2225C78.7279 14.2225 78.6849 14.2234 78.641 14.2251C77.3452 14.2787 76.2742 15.2601 76.046 16.5375L75.9327 17.1739C75.7001 18.4749 76.3971 19.783 77.627 20.2667C77.9817 20.4063 78.368 20.4826 78.7718 20.4826M57.075 20.4818C57.1277 20.4818 57.1813 20.4809 57.2348 20.4783C57.2541 20.4774 57.2734 20.4756 57.2927 20.4739C57.2331 20.6205 57.1988 20.7811 57.1988 20.9497C57.1988 21.6441 57.7615 22.2077 58.4559 22.2077C59.1503 22.2077 59.7139 21.6449 59.7139 20.9497C59.7139 20.4493 59.4207 20.0182 58.9976 19.8163C59.7095 19.258 60.1775 18.3994 60.2038 17.4417C60.253 15.6719 58.8334 14.2225 57.075 14.2225C57.0311 14.2225 56.9881 14.2234 56.9442 14.2251C55.6485 14.2787 54.5775 15.2601 54.3492 16.5375L54.236 17.1739C54.0033 18.4749 54.7004 19.783 55.9303 20.2667C56.2849 20.4063 56.6712 20.4818 57.075 20.4818ZM75.025 0.00175576H73.6976C71.56 0.00175576 69.7358 1.52926 69.36 3.63354L68.2355 9.92967C66.8572 8.86481 65.0453 8.28804 63.0306 8.28804C61.8533 8.28804 60.6357 8.48732 59.5103 8.86481C58.4577 9.21771 57.5482 9.69177 56.7678 10.2185L57.6667 5.18123C57.8967 3.89426 57.5473 2.58096 56.7072 1.57842C55.868 0.575888 54.6363 0.000877878 53.3291 0.000877878H52.0018C49.8641 0.000877878 48.0399 1.52838 47.6642 3.63266L46.6494 9.31604C45.789 8.68923 44.7733 8.36003 43.6944 8.36003C42.5391 8.36003 41.4093 8.76209 40.513 9.49073C39.6167 10.2194 38.9943 11.2447 38.7599 12.3763L37.0313 20.7126C36.8487 21.0313 36.5072 21.3017 36.1131 21.4316C35.8436 21.5203 35.5855 21.5659 35.3449 21.5659C34.2704 21.5659 33.5848 20.631 33.382 19.704C33.0712 18.2836 33.2767 16.6937 33.4751 15.1566L33.4865 15.0705C33.4952 15.0038 33.5023 14.938 33.5084 14.8669L33.6006 14.4218C33.9096 12.9311 33.5356 11.3984 32.5744 10.2176C31.6131 9.03687 30.1883 8.35915 28.666 8.35915C27.5108 8.35915 26.3809 8.76122 25.4846 9.48986C25.1545 9.75849 24.8622 10.0666 24.612 10.4055C23.1846 9.03687 21.1505 8.28629 18.8523 8.28629C17.675 8.28629 16.4574 8.48556 15.332 8.86305C14.2794 9.21596 13.3699 9.69001 12.5895 10.2167L13.4884 5.17948C13.7184 3.89251 13.3682 2.5792 12.5289 1.57667C11.6905 0.576766 10.4589 0.00175576 9.15171 0.00175576H7.82436C5.68673 0.00175576 3.8625 1.52926 3.48676 3.63354L0.069188 22.7739C-0.160816 24.0609 0.188579 25.3742 1.02871 26.3767C1.86796 27.3792 3.09962 27.9543 4.40678 27.9543H5.73413C7.12557 27.9543 8.38357 27.3073 9.19648 26.2758C10.695 27.4187 12.7185 28.0517 14.9905 28.0517C15.1388 28.0517 15.2898 28.0491 15.4391 28.0429C17.5205 27.9648 19.616 27.3626 21.3393 26.3477C22.0258 25.943 22.6877 25.4286 23.3005 24.8264C23.785 25.4839 24.3969 26.0694 25.108 26.5453C26.438 27.4372 28.027 27.9139 29.7072 27.9253C30.1409 27.9648 30.5781 27.985 31.0065 27.985C33.0405 27.985 34.9675 27.5443 36.7337 26.6761C36.8786 26.605 37.0226 26.5303 37.1648 26.4531C37.8557 27.3591 38.9442 27.9341 40.1452 27.9393L42.7411 27.9516H42.7595C43.8402 27.9516 44.8383 27.4846 45.5345 26.7261C46.3579 27.5188 47.4368 27.9534 48.586 27.9534H49.9133C51.3047 27.9534 52.5627 27.3064 53.3757 26.2749C54.8742 27.4187 56.8977 28.0508 59.1697 28.0508C59.318 28.0508 59.469 28.0482 59.6182 28.042C61.6997 27.9639 63.7952 27.3617 65.5185 26.3469C65.8363 26.1599 66.147 25.9501 66.4499 25.7201C66.6176 26.0159 66.8195 26.2933 67.0539 26.5453C67.8843 27.4398 69.0607 27.9534 70.2818 27.9534H71.6092C73.0006 27.9534 74.2586 27.3064 75.0715 26.2749C76.5701 27.4179 78.5936 28.0508 80.8655 28.0508C81.0139 28.0508 81.1649 28.0482 81.3141 28.042C83.3956 27.9639 85.491 27.3617 87.2143 26.3469C88.0334 25.8649 88.8033 25.2355 89.4977 24.4981C89.6952 25.1091 90.0104 25.6849 90.4344 26.1906C91.3983 27.3415 92.8126 28.0017 94.3137 28.0017C96.7683 28.0017 98.8629 26.2477 99.2948 23.8317L99.6258 21.9777L99.6653 21.7582L99.6609 21.7327C99.8751 20.3975 101.432 11.7671 102.479 6.00205C102.743 4.52019 102.342 3.012 101.378 1.8611C100.414 0.710203 98.9998 0.0491611 97.4987 0.0491611C95.0441 0.0491611 92.9495 1.80316 92.5176 4.21908L91.2587 11.2684C91.077 11.0314 90.8812 10.804 90.6705 10.5863C89.237 9.10359 87.1265 8.28716 84.7291 8.28716C83.5518 8.28716 82.3342 8.48644 81.2088 8.86393C80.1562 9.21684 79.2467 9.69089 78.4663 10.2176L79.3652 5.18036C79.5952 3.89339 79.2458 2.58008 78.4057 1.57755C77.5665 0.57501 76.3348 0 75.0276 0L75.025 0.00175576ZM78.7709 19.2124C78.5356 19.2124 78.3065 19.1693 78.0914 19.0842C77.4356 18.8261 77.0538 18.1159 77.1819 17.396L77.2952 16.7596C77.4216 16.0537 78.0089 15.5209 78.6919 15.4928C78.7173 15.4919 78.7437 15.491 78.77 15.491C79.2766 15.491 79.7506 15.6912 80.1035 16.0546C80.4564 16.4181 80.6434 16.8974 80.6294 17.4057C80.6022 18.3696 79.8279 19.1614 78.8666 19.2097C78.8341 19.2115 78.8025 19.2124 78.7709 19.2124ZM57.075 19.2124C56.8398 19.2124 56.6106 19.1693 56.3956 19.0842C55.7398 18.8261 55.3579 18.1159 55.4861 17.396L55.5993 16.7596C55.7257 16.0537 56.313 15.5209 56.996 15.4928C57.0215 15.4919 57.0478 15.491 57.0742 15.491C57.5807 15.491 58.0547 15.6912 58.4077 16.0546C58.7606 16.4181 58.9475 16.8974 58.9335 17.4057C58.9186 17.9552 58.6552 18.4688 58.2128 18.8164L57.7642 19.1685L57.205 19.2062C57.1918 19.2071 57.1786 19.208 57.1663 19.2088H57.1628C57.1339 19.2106 57.104 19.2115 57.0742 19.2115L57.075 19.2124ZM12.888 19.2071C12.65 19.2071 12.4244 19.1658 12.2181 19.0842C11.5624 18.8261 11.1805 18.1168 11.3095 17.396L11.4228 16.7596C11.5492 16.0537 12.1365 15.5209 12.8195 15.4928C12.8449 15.4919 12.8713 15.491 12.8976 15.491C13.2286 15.491 13.5604 15.5858 13.8563 15.7649L14.2531 16.0055L14.4874 16.3865C14.5349 16.4628 14.5752 16.5418 14.6095 16.6209C14.8895 17.2766 14.7394 18.2932 14.3005 18.712C14.2662 18.7444 14.2294 18.7743 14.1925 18.7989C13.7966 19.0614 13.333 19.2071 12.888 19.2071Z" fill="white"/>
<path d="M115.054 16.3288C115.065 16.3288 115.075 16.3288 115.086 16.3288C115.586 16.3122 115.978 15.8925 115.961 15.3921C115.901 13.6399 114.97 12.4741 114.572 11.9754L114.553 11.9509C114.374 11.7261 114.109 11.6094 113.843 11.6094C113.645 11.6094 113.446 11.6743 113.279 11.8069C112.887 12.1194 112.823 12.69 113.135 13.0816L113.155 13.107C113.465 13.4951 114.109 14.3018 114.148 15.4527C114.165 15.9426 114.567 16.3288 115.054 16.3288Z" fill="#80A3FF"/>
<path d="M89.2376 16.4226C89.2481 16.4226 89.2587 16.4226 89.2692 16.4226C89.7696 16.4059 90.162 15.9863 90.1444 15.4859C90.0847 13.7337 89.1533 12.5678 88.7565 12.0692L88.7363 12.0446C88.5572 11.8199 88.293 11.7031 88.027 11.7031C87.8286 11.7031 87.6293 11.7681 87.4625 11.9006C87.071 12.2132 87.0069 12.7838 87.3186 13.1753L87.3387 13.2008C87.6486 13.5888 88.293 14.3956 88.3316 15.5465C88.3483 16.0363 88.7504 16.4226 89.2376 16.4226Z" fill="#80A3FF"/>
<path d="M67.1407 16.4226C67.1512 16.4226 67.1617 16.4226 67.1723 16.4226C67.6726 16.4059 68.0651 15.9863 68.0475 15.4859C67.9878 13.7337 67.0564 12.567 66.6587 12.0692L66.6394 12.0446C66.4603 11.8199 66.1961 11.7031 65.9301 11.7031C65.7317 11.7031 65.5324 11.7681 65.3647 11.9006C64.9732 12.2132 64.9091 12.7838 65.2216 13.1753L65.2418 13.2008C65.5517 13.5888 66.1961 14.3956 66.2347 15.5474C66.2514 16.0372 66.6534 16.4226 67.1407 16.4226Z" fill="#80A3FF"/>
<path d="M23.3164 16.4226C23.327 16.4226 23.3375 16.4226 23.348 16.4226C23.8484 16.4059 24.2408 15.9863 24.2233 15.4859C24.1636 13.7337 23.2322 12.567 22.8345 12.0692L22.8152 12.0446C22.6361 11.8199 22.3718 11.7031 22.1058 11.7031C21.9074 11.7031 21.7082 11.7681 21.5405 11.9006C21.1489 12.2132 21.0849 12.7838 21.3974 13.1753L21.4176 13.2008C21.7275 13.5888 22.3718 14.3956 22.4105 15.5474C22.4271 16.0372 22.8292 16.4226 23.3164 16.4226Z" fill="#80A3FF"/>
<path d="M44.7413 14.0079C45.1662 14.0079 45.5455 13.7077 45.6298 13.2766C45.6403 13.2292 45.6789 13.058 45.7035 12.9509C45.7158 12.8983 45.7246 12.8596 45.7263 12.8517C45.8343 12.3636 45.5253 11.8808 45.0372 11.7719C44.9713 11.757 44.9055 11.75 44.8397 11.75C44.4244 11.75 44.0496 12.0371 43.9548 12.4593L43.9355 12.5436C43.8635 12.8561 43.8538 12.9009 43.8477 12.9334C43.7555 13.4259 44.0803 13.899 44.5728 13.9912C44.629 14.0018 44.6852 14.007 44.7405 14.007" fill="#80A3FF"/>
<path d="M96.6588 21.8753C97.0986 21.8753 97.4849 21.554 97.5542 21.1063C97.6727 20.3338 98.526 14.9568 98.6261 14.3721C98.7104 13.8787 98.3786 13.4099 97.8852 13.3257C97.8334 13.3169 97.7816 13.3125 97.7307 13.3125C97.2961 13.3125 96.9134 13.625 96.8379 14.0666C96.7352 14.6662 95.8907 19.9852 95.7607 20.8306C95.6843 21.3258 96.0241 21.7884 96.5192 21.8648C96.5657 21.8718 96.6131 21.8753 96.6588 21.8753Z" fill="#80A3FF"/>
<path d="M43.2234 21.7314C43.65 21.7314 44.031 21.4285 44.1136 20.9931C44.1215 20.9519 45.0748 15.9576 45.1082 15.7891C45.2056 15.3045 44.8966 14.8295 44.4112 14.7242C44.3462 14.7101 44.2812 14.7031 44.218 14.7031C43.8002 14.7031 43.4253 14.9937 43.3331 15.4177C43.3243 15.4607 42.3411 20.6077 42.3323 20.656C42.2393 21.1485 42.5632 21.6226 43.0548 21.7156C43.1119 21.7261 43.1672 21.7314 43.2234 21.7314Z" fill="#80A3FF"/>
<path d="M5.06934 23.3839C5.04037 23.3839 5.00877 23.3813 4.97365 23.3769C4.93152 23.3707 4.88938 23.3681 4.84812 23.3681C4.40216 23.3681 4.01326 23.6964 3.95005 24.1503C3.88157 24.6463 4.22746 25.1045 4.72346 25.173C4.84109 25.1897 4.9561 25.1976 5.06934 25.1976C5.39152 25.1976 5.69351 25.1309 5.96917 24.9983C7.05159 24.4786 7.22102 23.3549 7.55988 21.1155C7.59236 20.903 7.62572 20.6783 7.66259 20.4395C7.77233 19.7258 7.88996 19.0051 8.01199 18.2949C8.09626 17.8015 7.7653 17.3327 7.27106 17.2475C7.21926 17.2388 7.16747 17.2344 7.11743 17.2344C6.68376 17.2344 6.30013 17.546 6.22463 17.9885C6.10085 18.7083 5.98233 19.4396 5.87084 20.163C5.83397 20.4035 5.79974 20.63 5.76725 20.8442C5.59607 21.9758 5.40294 23.2584 5.18522 23.3628C5.15713 23.376 5.11763 23.3839 5.06934 23.3839Z" fill="#80A3FF"/>
<path d="M71.0997 23.3797C71.0707 23.3797 71.0391 23.3771 71.004 23.3727C70.9619 23.3665 70.9206 23.3639 70.8794 23.3639C70.4343 23.3639 70.0445 23.6922 69.9813 24.1461C69.9128 24.6421 70.2587 25.1003 70.7547 25.1688C70.8723 25.1855 70.9873 25.1934 71.1006 25.1934C71.4228 25.1934 71.7248 25.1267 72.0004 24.9941C73.0828 24.4744 73.2523 23.3507 73.5911 21.1113C73.6236 20.8988 73.657 20.6741 73.6938 20.4353C73.7702 19.9402 73.4305 19.4775 72.9354 19.4012C72.8888 19.3941 72.8423 19.3906 72.7967 19.3906C72.3568 19.3906 71.9697 19.711 71.9012 20.1596C71.8644 20.4002 71.8301 20.6267 71.7976 20.8409C71.6264 21.9725 71.4333 23.255 71.2156 23.3595C71.1875 23.3727 71.148 23.3797 71.0997 23.3797Z" fill="#80A3FF"/>
<path d="M49.5763 23.3797C49.5473 23.3797 49.5157 23.3771 49.4806 23.3727C49.4385 23.3665 49.3972 23.3639 49.3559 23.3639C48.9108 23.3639 48.5211 23.6922 48.4579 24.1461C48.3894 24.6421 48.7353 25.1003 49.2313 25.1688C49.3489 25.1855 49.4639 25.1934 49.5772 25.1934C49.8993 25.1934 50.2013 25.1267 50.477 24.9941C51.5594 24.4744 51.7288 23.3507 52.0677 21.1113C52.1002 20.8988 52.1335 20.6741 52.1704 20.4353C52.2468 19.9402 51.907 19.4775 51.4119 19.4012C51.3654 19.3941 51.3189 19.3906 51.2732 19.3906C50.8334 19.3906 50.4463 19.711 50.3778 20.1596C50.3409 20.4002 50.3067 20.6267 50.2742 20.8409C50.103 21.9725 49.9099 23.255 49.6922 23.3595C49.6641 23.3727 49.6246 23.3797 49.5763 23.3797Z" fill="#80A3FF"/>
<path d="M95.8532 24.8525C96.2781 24.8525 96.6564 24.5532 96.7416 24.1221C96.7512 24.0756 96.7907 23.9062 96.8153 23.7982C96.8276 23.7446 96.8373 23.7043 96.839 23.6955C96.947 23.2074 96.638 22.7246 96.1499 22.6157C96.0841 22.6008 96.0182 22.5938 95.9533 22.5938C95.538 22.5938 95.1623 22.8808 95.0684 23.3031L95.0482 23.3909C94.9806 23.6841 94.9683 23.7411 94.9613 23.7754C94.8682 24.2679 95.1921 24.7419 95.6837 24.835C95.7408 24.8455 95.797 24.8508 95.8532 24.8508" fill="#80A3FF"/>
<path d="M67.0742 9.92188C67.5983 10.2353 68.4499 10.8375 69.1811 11.8681C70.059 13.1051 70.3136 14.3262 70.4005 14.9583" stroke="white" stroke-miterlimit="10" stroke-linecap="round"/>
<path d="M90.1016 10.875C90.5317 11.3087 91.2077 12.1023 91.6607 13.2821C92.205 14.6982 92.1497 15.9439 92.0768 16.5786" stroke="white" stroke-miterlimit="10" stroke-linecap="round"/>
<path d="M46.0195 9.64062C46.4567 10.0673 47.145 10.8503 47.6173 12.0223C48.1844 13.4295 48.1493 14.6761 48.0869 15.3108" stroke="white" stroke-miterlimit="10" stroke-linecap="round"/>
<path d="M23.3789 10.25C23.8161 10.6766 24.5043 11.4597 24.9766 12.6317C25.5438 14.0389 25.5086 15.2855 25.4463 15.9202" stroke="white" stroke-miterlimit="10" stroke-linecap="round"/>
<path d="M138.195 10.3906C138.632 10.8173 139.321 11.6003 139.793 12.7723C140.36 14.1795 140.325 15.4261 140.263 16.0608" stroke="white" stroke-miterlimit="10" stroke-linecap="round"/>
<path d="M154.496 10.3906C154.933 10.8173 155.622 11.6003 156.094 12.7723C156.661 14.1795 156.626 15.4261 156.563 16.0608" stroke="white" stroke-miterlimit="10" stroke-linecap="round"/>
<defs>
<linearGradient id="paint0_linear_4573_22141" x1="146.355" y1="35.3732" x2="146.355" y2="8.69013" gradientUnits="userSpaceOnUse">
<stop stop-color="#7098FF"/>
<stop offset="1" stop-color="#8080FF"/>
</linearGradient>
<linearGradient id="paint1_linear_4573_22141" x1="108.129" y1="27.3424" x2="108.129" y2="8.6085" gradientUnits="userSpaceOnUse">
<stop stop-color="#7098FF"/>
<stop offset="1" stop-color="#807CFF"/>
</linearGradient>
<linearGradient id="paint2_linear_4573_22141" x1="51.2761" y1="27.422" x2="51.2761" y2="9.50455" gradientUnits="userSpaceOnUse">
<stop stop-color="#7098FF"/>
<stop offset="1" stop-color="#7F7FFF"/>
</linearGradient>
</defs>
</svg>
