<svg width="12" height="12" viewBox="0 0 12 12" fill="none" xmlns="http://www.w3.org/2000/svg">
<path d="M8.99893 0.902366C9.58806 0.422096 10.4577 0.456884 11.0067 1.00588C11.5922 1.59157 11.5921 2.54123 11.0067 3.12698L8.12979 6.00295L11.0067 8.87893L11.1093 8.99319C11.5899 9.5823 11.5558 10.4518 11.0067 11.001C10.4575 11.5502 9.58808 11.5841 8.99893 11.1035L8.88468 11.001L6.0087 8.12405L3.13272 11.001L3.01847 11.1035C2.4294 11.5838 1.56074 11.5499 1.01163 11.001C0.425949 10.4152 0.425875 9.46468 1.01163 8.87893L3.88663 6.00295L1.01163 3.12698L0.908115 3.01272C0.428108 2.42357 0.462649 1.55487 1.01163 1.00588C1.56063 0.457017 2.42936 0.422371 3.01847 0.902366L3.13272 1.00588L6.0087 3.88088L8.88468 1.00588L8.99893 0.902366Z" fill="#CDCED6"/>
</svg>
