<svg width="236" height="18" viewBox="0 0 236 18" fill="none" xmlns="http://www.w3.org/2000/svg">
<path d="M0 0.441406H15.9946C20.1277 0.441406 22.5734 2.12891 22.5734 4.96586C22.5734 6.75119 21.5217 8.12075 19.6875 8.85445C21.8641 9.49032 23.2092 10.9333 23.2092 12.9876C23.2092 15.8246 20.7636 17.561 16.606 17.561H0V0.441406ZM3.15489 2.74032V7.87619H15.7745C18.1223 7.87619 19.4185 6.8001 19.4185 5.25934C19.4185 3.71858 18.1467 2.74032 15.7745 2.74032H3.15489ZM3.15489 10.1017V15.311H16.337C18.6848 15.311 20.0299 14.3816 20.0299 12.743C20.0299 11.1045 18.6603 10.1017 16.337 10.1017H3.15489Z" fill="#7098FF"/>
<path d="M24.3828 7.99847V0.441406H27.5622V7.9251C27.5622 12.8409 31.2551 15.5311 36.2931 15.5311C41.3312 15.5311 45.0486 12.8409 45.0486 7.9251V0.441406H48.1546V7.99847C48.1546 14.2349 43.2632 17.9523 36.2687 17.9523C29.2741 17.9523 24.3828 14.2349 24.3828 7.99847Z" fill="#7098FF"/>
<path d="M50.0312 0.441406H66.0258C70.159 0.441406 72.6046 2.12891 72.6046 4.96586C72.6046 6.75119 71.553 8.12075 69.7187 8.85445C71.8954 9.49032 73.2405 10.9333 73.2405 12.9876C73.2405 15.8246 70.7948 17.561 66.6372 17.561H50.0312V0.441406ZM53.1861 2.74032V7.87619H65.8057C68.1535 7.87619 69.4497 6.8001 69.4497 5.25934C69.4497 3.71858 68.178 2.74032 65.8057 2.74032H53.1861ZM53.1861 10.1017V15.311H66.3682C68.716 15.311 70.0611 14.3816 70.0611 12.743C70.0611 11.1045 68.6916 10.1017 66.3682 10.1017H53.1861Z" fill="#7098FF"/>
<path d="M74.7344 0.441406H90.7289C94.8621 0.441406 97.3077 2.12891 97.3077 4.96586C97.3077 6.75119 96.2561 8.12075 94.4219 8.85445C96.5985 9.49032 97.9436 10.9333 97.9436 12.9876C97.9436 15.8246 95.498 17.561 91.3404 17.561H74.7344V0.441406ZM77.8893 2.74032V7.87619H90.5088C92.8567 7.87619 94.1529 6.8001 94.1529 5.25934C94.1529 3.71858 92.8811 2.74032 90.5088 2.74032H77.8893ZM77.8893 10.1017V15.311H91.0713C93.4192 15.311 94.7643 14.3816 94.7643 12.743C94.7643 11.1045 93.3947 10.1017 91.0713 10.1017H77.8893Z" fill="#7098FF"/>
<path d="M99.4375 0.441406H102.617V15.2865H119.565V17.561H99.4375V0.441406Z" fill="#7098FF"/>
<path d="M121.109 0.441406H141.604V2.71586H124.289V7.72945H136.737V9.97945H124.289V15.311H141.604V17.561H121.109V0.441406Z" fill="#7098FF"/>
<path d="M141.602 15.332H160.86V17.5598H141.602V15.332Z" fill="#7098FF"/>
<path d="M160.305 0.441406H175.639C180.114 0.441406 182.903 2.49575 182.903 5.82184C182.903 9.14793 180.09 11.2023 175.639 11.2023H163.484V17.561H160.305V0.441406ZM163.484 2.71586V8.97673H175.37C178.158 8.97673 179.699 7.77836 179.699 5.8463C179.699 3.91423 178.158 2.71586 175.37 2.71586H163.484Z" fill="#7098FF"/>
<path d="M183.867 9C183.867 3.91304 189.712 0 197.367 0C205.022 0 210.892 3.91304 210.892 9C210.892 14.087 205.071 18 197.367 18C189.663 18 183.867 14.1114 183.867 9ZM207.688 9C207.688 5.33152 203.359 2.32337 197.367 2.32337C191.375 2.32337 187.071 5.33152 187.071 9C187.071 12.6685 191.4 15.6766 197.367 15.6766C203.335 15.6766 207.688 12.6685 207.688 9Z" fill="#7098FF"/>
<path d="M212.43 0.441406H227.764C232.239 0.441406 235.028 2.49575 235.028 5.82184C235.028 9.14793 232.215 11.2023 227.764 11.2023H215.609V17.561H212.43V0.441406ZM215.609 2.71586V8.97673H227.495C230.283 8.97673 231.824 7.77836 231.824 5.8463C231.824 3.91423 230.283 2.71586 227.495 2.71586H215.609Z" fill="#7098FF"/>
</svg>
