<svg width="29" height="30" viewBox="0 0 29 30" fill="none" xmlns="http://www.w3.org/2000/svg">
<g filter="url(#filter0_d_857_7186)">
<path d="M24.2334 14.9482C24.2534 15.4282 23.8834 15.8182 23.4034 15.8382H23.3734C22.9134 15.8382 22.5334 15.4782 22.5234 15.0082C22.4834 13.9182 21.8734 13.1582 21.5834 12.7882L21.5634 12.7682C21.2634 12.3982 21.3234 11.8582 21.6934 11.5582C22.0634 11.2682 22.6034 11.3282 22.9034 11.6982L22.9234 11.7182C23.2934 12.1882 24.1834 13.2882 24.2334 14.9482Z" fill="#80A3FF"/>
<path d="M13.5034 15.5391C13.8034 15.5391 14.0934 15.6191 14.3634 15.7791L14.6834 15.9691L14.9534 16.3791C14.9934 16.4391 15.0234 16.5091 15.0434 16.5491C15.2934 17.1391 15.1634 18.0491 14.7334 18.4591L14.7034 18.4791L14.6734 18.4991C14.3234 18.7391 13.9034 18.8691 13.5034 18.8691C13.2934 18.8691 13.0934 18.8291 12.9034 18.7591C12.4034 18.5591 12.0834 18.0691 12.0834 17.5091C12.0834 17.4191 12.0834 17.3391 12.1034 17.2491L12.2034 16.6691C12.2734 16.2791 12.4934 15.9491 12.8334 15.7391C13.0034 15.6291 13.2034 15.5591 13.4234 15.5491H13.5134M16.2134 13.2891C15.5534 13.2891 15.0234 13.8291 15.0234 14.4791C15.0234 14.5491 15.0234 14.6091 15.0234 14.6691C14.5734 14.3991 14.0434 14.2391 13.4934 14.2391H13.3734C12.9134 14.2591 12.4834 14.3991 12.1134 14.6391C11.4934 15.0291 11.0534 15.6691 10.9134 16.4291L10.8134 17.0291C10.7834 17.1891 10.7734 17.3491 10.7734 17.4991C10.7734 18.5691 11.4034 19.5591 12.4134 19.9591C12.7634 20.0991 13.1234 20.1591 13.4834 20.1591C14.1534 20.1591 14.8234 19.9391 15.3834 19.5691C15.4834 19.5091 15.5734 19.4391 15.6534 19.3591C16.4834 18.5591 16.6534 17.0491 16.2234 16.0391C16.1634 15.9091 16.1034 15.7791 16.0234 15.6591C16.0834 15.6691 16.1434 15.6691 16.2034 15.6691C16.8534 15.6691 17.3934 15.1391 17.3934 14.4791C17.3934 13.8191 16.8534 13.2891 16.2034 13.2891H16.2134Z" fill="white"/>
<path d="M8.50346 2.73938C8.97346 2.68938 9.40346 3.01938 9.45346 3.48938C9.51346 3.95938 9.18346 4.38938 8.71346 4.44938C8.66346 4.44938 8.62346 4.46938 8.59346 4.47938C8.52346 4.52938 8.34346 4.80938 8.29346 5.54938C8.27346 5.99938 7.89346 6.35938 7.44346 6.35938H7.39346C6.92346 6.32938 6.55346 5.91938 6.58346 5.44938C6.64346 4.30938 7.01346 3.47938 7.62346 3.05938C7.88346 2.88938 8.17346 2.77938 8.50346 2.73938Z" fill="#80A3FF"/>
<path d="M8.90345 17.4619C8.90345 17.4619 8.90345 17.5619 8.90345 17.6119C8.78345 18.2819 8.67345 18.9619 8.57345 19.6419C8.53345 19.8619 8.50345 20.0819 8.47345 20.2819C8.15345 22.4019 7.99345 23.4619 6.97345 23.9519C6.71345 24.0819 6.42345 24.1419 6.12345 24.1419C6.01345 24.1419 5.90345 24.1419 5.79345 24.1219C5.32345 24.0519 4.99345 23.6219 5.06345 23.1519C5.12345 22.6819 5.55345 22.3519 6.02345 22.4219C6.11345 22.4319 6.18345 22.4319 6.22345 22.4119C6.43345 22.3119 6.61345 21.0919 6.77345 20.0219C6.81345 19.8219 6.84345 19.6019 6.87345 19.3819C6.98345 18.6919 7.09345 18.0019 7.21345 17.3219C7.29345 16.8519 7.73345 16.5419 8.20345 16.6219C8.62345 16.6919 8.91345 17.0519 8.91345 17.4619H8.90345Z" fill="#80A3FF"/>
<path d="M23.9135 11.15C21.9635 9.14 18.7235 8.98 16.2035 9.82C13.6935 10.66 12.1735 12.31 11.3935 13.4L12.8935 4.99C13.2135 3.17 11.8135 1.5 9.97345 1.5H8.71345C7.27345 1.5 6.04345 2.53 5.79345 3.94L2.55345 22.06C2.23345 23.88 3.63345 25.55 5.48345 25.55H6.73345C8.17345 25.55 9.40345 24.52 9.65345 23.1C9.67345 23.12 9.69345 23.15 9.70345 23.17C11.1235 25.06 13.6135 25.72 15.8735 25.63C17.6535 25.57 19.4434 25.05 20.8934 24.19C24.9634 21.8 27.5835 14.95 23.9135 11.15ZM7.62345 3.06C7.88345 2.89 8.17345 2.78 8.50345 2.74C8.97345 2.69 9.40345 3.02 9.45345 3.49C9.51345 3.96 9.18345 4.39 8.71345 4.45C8.66345 4.45 8.62345 4.47 8.59345 4.48C8.52345 4.53 8.34345 4.81 8.29345 5.55C8.27345 6 7.89345 6.36 7.44345 6.36H7.39345C6.92345 6.33 6.55345 5.92 6.58345 5.45C6.64345 4.31 7.01345 3.48 7.62345 3.06ZM8.89345 17.61C8.77345 18.28 8.66345 18.96 8.56345 19.64C8.52345 19.86 8.49345 20.08 8.46345 20.28C8.14345 22.4 7.98345 23.46 6.96345 23.95C6.70345 24.08 6.41345 24.14 6.11345 24.14C6.00345 24.14 5.89345 24.13 5.78345 24.12C5.31345 24.05 4.98345 23.62 5.05345 23.15C5.11345 22.68 5.54345 22.35 6.01345 22.42C6.10345 22.43 6.17345 22.43 6.21345 22.41C6.42345 22.31 6.60345 21.09 6.76345 20.02C6.80345 19.82 6.83345 19.6 6.86345 19.38C6.97345 18.69 7.08345 18 7.20345 17.32C7.28345 16.85 7.72345 16.54 8.19345 16.62C8.61345 16.69 8.90345 17.05 8.90345 17.46C8.90345 17.51 8.90345 17.56 8.89345 17.61ZM16.2135 15.67C16.1535 15.67 16.0935 15.67 16.0335 15.66C16.1135 15.78 16.1735 15.91 16.2335 16.04C16.6635 17.05 16.4935 18.56 15.6635 19.36C15.5835 19.44 15.4935 19.51 15.3935 19.57C14.5335 20.15 13.4035 20.35 12.4235 19.96C11.4135 19.56 10.7835 18.57 10.7835 17.5C10.7835 17.35 10.7935 17.19 10.8235 17.03L10.9235 16.43C11.0635 15.67 11.5035 15.03 12.1235 14.64C12.4935 14.4 12.9235 14.26 13.3835 14.24H13.5035C14.0535 14.24 14.5835 14.4 15.0335 14.67C15.0235 14.61 15.0235 14.55 15.0235 14.48C15.0235 13.83 15.5535 13.29 16.2135 13.29C16.8735 13.29 17.4035 13.83 17.4035 14.48C17.4035 15.13 16.8635 15.67 16.2135 15.67ZM23.4035 15.84H23.3735C22.9135 15.84 22.5335 15.48 22.5235 15.01C22.4835 13.92 21.8735 13.16 21.5835 12.79L21.5634 12.77C21.2634 12.4 21.3235 11.86 21.6935 11.56C22.0635 11.27 22.6035 11.33 22.9035 11.7L22.9235 11.72C23.2935 12.19 24.1834 13.29 24.2334 14.95C24.2534 15.43 23.8835 15.82 23.4035 15.84Z" fill="url(#paint0_linear_857_7186)"/>
<path d="M15.4434 26.14C13.1534 26.14 11.1634 25.41 9.84344 24.1C9.27344 25.27 8.08344 26.05 6.72344 26.05H5.47344C4.44344 26.05 3.47344 25.6 2.81344 24.81C2.15344 24.02 1.87344 22.99 2.05344 21.97L5.29344 3.85C5.58344 2.2 7.02344 1 8.70344 1H9.96344C10.9834 1 11.9534 1.45 12.6134 2.24C13.2734 3.03 13.5534 4.06 13.3734 5.08L12.1934 11.69C13.1134 10.79 14.3734 9.9 16.0334 9.35C18.4134 8.56 21.9934 8.47 24.2634 10.81C25.7634 12.36 26.4034 14.54 26.0734 16.95C25.6434 20.06 23.6634 23.15 21.1434 24.63C19.6034 25.54 17.7434 26.08 15.8834 26.14C15.7334 26.14 15.5934 26.14 15.4434 26.14ZM9.32344 22.08L10.1434 22.94C11.7434 25.05 14.6734 25.18 15.8534 25.13C17.5434 25.07 19.2434 24.59 20.6434 23.76C22.9234 22.42 24.7134 19.63 25.0934 16.8C25.2934 15.32 25.1934 13.19 23.5534 11.5C21.7334 9.62 18.6234 9.54 16.3634 10.3C14.0434 11.07 12.6034 12.57 11.8034 13.7L10.5134 15.5L12.4034 4.91C12.5334 4.19 12.3334 3.45 11.8634 2.89C11.3934 2.33 10.7034 2.01 9.98344 2.01H8.72344C7.52344 2.01 6.50344 2.86 6.29344 4.04L3.04344 22.15C2.91344 22.87 3.11344 23.61 3.58344 24.17C4.05344 24.73 4.74344 25.05 5.48344 25.05H6.73344C7.93344 25.05 8.95344 24.19 9.16344 23.01L9.32344 22.08Z" fill="white"/>
</g>
<defs>
<filter id="filter0_d_857_7186" x="0" y="0" width="28.1582" height="29.1406" filterUnits="userSpaceOnUse" color-interpolation-filters="sRGB">
<feFlood flood-opacity="0" result="BackgroundImageFix"/>
<feColorMatrix in="SourceAlpha" type="matrix" values="0 0 0 0 0 0 0 0 0 0 0 0 0 0 0 0 0 0 127 0" result="hardAlpha"/>
<feOffset dy="1"/>
<feGaussianBlur stdDeviation="1"/>
<feComposite in2="hardAlpha" operator="out"/>
<feColorMatrix type="matrix" values="0 0 0 0 0 0 0 0 0 0 0 0 0 0 0 0 0 0 0.2 0"/>
<feBlend mode="normal" in2="BackgroundImageFix" result="effect1_dropShadow_857_7186"/>
<feBlend mode="normal" in="SourceGraphic" in2="effect1_dropShadow_857_7186" result="shape"/>
</filter>
<linearGradient id="paint0_linear_857_7186" x1="14.0835" y1="25.73" x2="14.0835" y2="1.5" gradientUnits="userSpaceOnUse">
<stop stop-color="#7196FF"/>
<stop offset="1" stop-color="#7F7FFF"/>
</linearGradient>
</defs>
</svg>
