<svg width="26" height="26" viewBox="0 0 26 26" fill="none" xmlns="http://www.w3.org/2000/svg">
<rect width="26" height="26" rx="8" fill="#7098FF"/>
<path d="M12.9688 18.6562C10.7188 18.6562 9.10156 17.4531 9.03125 15.6562H10.4531C10.5312 16.7344 11.6016 17.4062 12.9531 17.4062C14.4453 17.4062 15.5234 16.6016 15.5312 15.4219C15.5234 14.1875 14.5391 13.3203 12.7812 13.3125H11.8594V12.0781H12.7812C14.1562 12.0781 15.1172 11.3047 15.1094 10.1406C15.1172 9.00781 14.2891 8.25781 13 8.25C11.7891 8.25781 10.6875 8.92188 10.625 10.0312H9.26562C9.33594 8.23438 11.0078 7.03125 13.0156 7.03125C15.1719 7.03125 16.4844 8.44531 16.4688 10.0625C16.4844 11.3516 15.7344 12.2891 14.5469 12.625V12.7031C16.0234 12.9297 16.9141 13.9844 16.9062 15.4219C16.9141 17.2812 15.2266 18.6562 12.9688 18.6562Z" fill="#D3EE17"/>
</svg>
